{
	"asset":{
		"generator":"Khronos glTF Blender I/O v3.5.30",
		"version":"2.0"
	},
	"scene":0,
	"scenes":[
		{
			"name":"Scene",
			"nodes":[
				0
			]
		}
	],
	"nodes":[
		{
			"mesh":0,
			"name":"M16Mag",
			"rotation":[
				0,
				-0.7033929824829102,
				0,
				0.7108012437820435
			],
			"scale":[
				0.34191054105758667,
				0.5993943810462952,
				0.14965133368968964
			],
			"translation":[
				0.05140119791030884,
				-0.7847153544425964,
				-0.24265703558921814
			]
		}
	],
	"materials":[
		{
			"doubleSided":true,
			"name":"M16",
			"normalTexture":{
				"index":0
			},
			"pbrMetallicRoughness":{
				"baseColorTexture":{
					"index":1
				},
				"metallicFactor":0,
				"roughnessFactor":0.5
			}
		},
		{
			"doubleSided":true,
			"name":"M16.001",
			"normalTexture":{
				"index":2
			},
			"pbrMetallicRoughness":{
				"baseColorTexture":{
					"index":3
				},
				"metallicFactor":0.009999999776482582,
				"roughnessFactor":0.5
			}
		}
	],
	"meshes":[
		{
			"name":"Cube.001",
			"primitives":[
				{
					"attributes":{
						"POSITION":0,
						"NORMAL":1
					},
					"indices":2,
					"material":0
				},
				{
					"attributes":{
						"POSITION":3,
						"NORMAL":4
					},
					"indices":5,
					"material":1
				}
			]
		}
	],
	"textures":[
		{
			"sampler":0,
			"source":0
		},
		{
			"sampler":0,
			"source":1
		},
		{
			"sampler":0,
			"source":0
		},
		{
			"sampler":0,
			"source":1
		}
	],
	"images":[
		{
			"bufferView":3,
			"mimeType":"image/jpeg",
			"name":"Metal027_1K_NormalDX"
		},
		{
			"bufferView":4,
			"mimeType":"image/jpeg",
			"name":"Metal027_1K_Color"
		}
	],
	"accessors":[
		{
			"bufferView":0,
			"componentType":5126,
			"count":693,
			"max":[
				0.9567376971244812,
				1,
				11.766833305358887
			],
			"min":[
				0.07023482024669647,
				-1.0301334857940674,
				5.961892604827881
			],
			"type":"VEC3"
		},
		{
			"bufferView":1,
			"componentType":5126,
			"count":693,
			"type":"VEC3"
		},
		{
			"bufferView":2,
			"componentType":5123,
			"count":1332,
			"type":"SCALAR"
		},
		{
			"bufferView":5,
			"componentType":5126,
			"count":21574,
			"max":[
				1.4105359315872192,
				3.2889404296875,
				45.11606979370117
			],
			"min":[
				-0.32547903060913086,
				-0.43813157081604004,
				-19.89813804626465
			],
			"type":"VEC3"
		},
		{
			"bufferView":6,
			"componentType":5126,
			"count":21574,
			"type":"VEC3"
		},
		{
			"bufferView":7,
			"componentType":5123,
			"count":35340,
			"type":"SCALAR"
		}
	],
	"bufferViews":[
		{
			"buffer":0,
			"byteLength":8316,
			"byteOffset":0,
			"target":34962
		},
		{
			"buffer":0,
			"byteLength":8316,
			"byteOffset":8316,
			"target":34962
		},
		{
			"buffer":0,
			"byteLength":2664,
			"byteOffset":16632,
			"target":34963
		},
		{
			"buffer":0,
			"byteLength":1144676,
			"byteOffset":19296
		},
		{
			"buffer":0,
			"byteLength":680532,
			"byteOffset":1163972
		},
		{
			"buffer":0,
			"byteLength":258888,
			"byteOffset":1844504,
			"target":34962
		},
		{
			"buffer":0,
			"byteLength":258888,
			"byteOffset":2103392,
			"target":34962
		},
		{
			"buffer":0,
			"byteLength":70680,
			"byteOffset":2362280,
			"target":34963
		}
	],
	"samplers":[
		{
			"magFilter":9729,
			"minFilter":9987
		}
	],
	"buffers":[
		{
			"byteLength":2432960,
			"uri":"data:application/octet-stream;base64,"
		}
	]
}
