{
	"asset":{
		"generator":"Khronos glTF Blender I/O v3.5.30",
		"version":"2.0"
	},
	"scene":0,
	"scenes":[
		{
			"name":"Scene",
			"nodes":[
				0
			]
		}
	],
	"nodes":[
		{
			"mesh":0,
			"name":"M16Mag",
			"rotation":[
				0,
				-0.7033929228782654,
				0,
				0.7108013033866882
			],
			"scale":[
				0.3419105112552643,
				0.5993943810462952,
				0.14965131878852844
			],
			"translation":[
				0.05140119791030884,
				-0.7847153544425964,
				-0.24265703558921814
			]
		}
	],
	"materials":[
		{
			"doubleSided":true,
			"name":"M16",
			"normalTexture":{
				"index":0
			},
			"pbrMetallicRoughness":{
				"baseColorTexture":{
					"index":1
				},
				"metallicFactor":0,
				"roughnessFactor":0.5
			}
		},
		{
			"doubleSided":true,
			"name":"M16.001",
			"normalTexture":{
				"index":2
			},
			"pbrMetallicRoughness":{
				"baseColorTexture":{
					"index":3
				},
				"metallicFactor":0.009999999776482582,
				"roughnessFactor":0.5
			}
		}
	],
	"meshes":[
		{
			"name":"Cube.001",
			"primitives":[
				{
					"attributes":{
						"POSITION":0,
						"NORMAL":1
					},
					"indices":2,
					"material":0
				},
				{
					"attributes":{
						"POSITION":3,
						"NORMAL":4
					},
					"indices":5,
					"material":1
				}
			]
		}
	],
	"textures":[
		{
			"sampler":0,
			"source":0
		},
		{
			"sampler":0,
			"source":1
		},
		{
			"sampler":0,
			"source":0
		},
		{
			"sampler":0,
			"source":1
		}
	],
	"images":[
		{
			"bufferView":3,
			"mimeType":"image/jpeg",
			"name":"Metal027_1K_NormalDX"
		},
		{
			"bufferView":4,
			"mimeType":"image/jpeg",
			"name":"Metal027_1K_Color"
		}
	],
	"accessors":[
		{
			"bufferView":0,
			"componentType":5126,
			"count":670,
			"max":[
				1.2164726257324219,
				0.9999998807907104,
				10.564245223999023
			],
			"min":[
				0.3162744641304016,
				-1.0301339626312256,
				4.74900484085083
			],
			"type":"VEC3"
		},
		{
			"bufferView":1,
			"componentType":5126,
			"count":670,
			"type":"VEC3"
		},
		{
			"bufferView":2,
			"componentType":5123,
			"count":1332,
			"type":"SCALAR"
		},
		{
			"bufferView":5,
			"componentType":5126,
			"count":19023,
			"max":[
				1.6607246398925781,
				3.2889404296875,
				36.421897888183594
			],
			"min":[
				-0.1565171480178833,
				-0.43813204765319824,
				-28.59701156616211
			],
			"type":"VEC3"
		},
		{
			"bufferView":6,
			"componentType":5126,
			"count":19023,
			"type":"VEC3"
		},
		{
			"bufferView":7,
			"componentType":5123,
			"count":35340,
			"type":"SCALAR"
		}
	],
	"bufferViews":[
		{
			"buffer":0,
			"byteLength":8040,
			"byteOffset":0,
			"target":34962
		},
		{
			"buffer":0,
			"byteLength":8040,
			"byteOffset":8040,
			"target":34962
		},
		{
			"buffer":0,
			"byteLength":2664,
			"byteOffset":16080,
			"target":34963
		},
		{
			"buffer":0,
			"byteLength":1144676,
			"byteOffset":18744
		},
		{
			"buffer":0,
			"byteLength":680532,
			"byteOffset":1163420
		},
		{
			"buffer":0,
			"byteLength":228276,
			"byteOffset":1843952,
			"target":34962
		},
		{
			"buffer":0,
			"byteLength":228276,
			"byteOffset":2072228,
			"target":34962
		},
		{
			"buffer":0,
			"byteLength":70680,
			"byteOffset":2300504,
			"target":34963
		}
	],
	"samplers":[
		{
			"magFilter":9729,
			"minFilter":9987
		}
	],
	"buffers":[
		{
			"byteLength":2371184,
			"uri":"data:application/octet-stream;base64,"
		}
	]
}
